<svg xmlns="http://www.w3.org/2000/svg" viewBox="0 0 119.43 191.33"><g id="Camada_2" data-name="Camada 2"><g id="Layer_1" data-name="Layer 1"><path d="M61.52,33.33a24.16,24.16,0,0,1-.14,3.3c-.1,1.48-.19,3-.4,4.44-.09.61,0,1.24-.11,1.86-.2,1.71-.38,3.42-.55,5.13-.1,1-.18,2-.25,3-.12,1.74-.31,3.47-.42,5.21,0,.75-.1,1.5-.11,2.25s-.17,1.52-.12,2.35a41.73,41.73,0,0,1,4-2.65A37,37,0,0,1,74.35,54c1.07-.23,2.15-.39,3.24-.52A33.8,33.8,0,0,1,83,53.11a5.35,5.35,0,0,1,2.56.71,2.37,2.37,0,0,1,1,2.45c-.2.92-.4,1.85-.53,2.8-.15,1.21.63,1.68,1.66,1.36,3.51-1.08,7-2.18,10.57-3.17,2.3-.65,4.64-1.16,7-1.62q2.7-.53,5.4-1c1.14-.19,2.31-.21,3.46-.36a11.45,11.45,0,0,1,2-.1,7.19,7.19,0,0,1,2.43.43,1.15,1.15,0,0,1,.78,1.55,29.88,29.88,0,0,0-2,6.18c-.58,2.58-1.14,5.16-1.75,7.73a11.25,11.25,0,0,0-.11,3.52c.05.74-.24,1-1,1.21a33.42,33.42,0,0,1-5.34,1c-1.32.16-2.66.17-4,.24-3.7.18-7.41.12-11.11.1-1.88,0-3.78-.06-5.65-.23a36.27,36.27,0,0,1-6.65-.87,4.94,4.94,0,0,1-2.44-1.28c-.14-.15-.3-.31-.3-.49a16.56,16.56,0,0,1,0-2.44c.07-.64.1-1.29.2-1.94a.4.4,0,0,0,0-.11c-.11-.35.36-.85,0-1a2.88,2.88,0,0,0-1.46,0,35.53,35.53,0,0,0-5.64,1.78c-3,1-5.87,2.16-8.74,3.41-.78.34-1.57.65-2.36,1-.22.09-.37.2-.32.48.14.92.28,1.85.41,2.78s.24,1.93.37,2.9c.15,1.19.26,2.4.42,3.6.11.82.16,1.66.23,2.49a65.22,65.22,0,0,1,.23,7.26,7.61,7.61,0,0,1-.52,2.91c-.16.39.09.72.22,1a32,32,0,0,0,4.48,7.54,25,25,0,0,0,6.47,5.54,20.58,20.58,0,0,0,7.1,2.71c1.83.32,3.69.51,5.49,1a31.07,31.07,0,0,1,4.13,1.45,29,29,0,0,1,5,2.77,28.3,28.3,0,0,1,2.92,2.32c.45.39,1,.31,1.52.44a16.48,16.48,0,0,1,6.87,3.6,14.75,14.75,0,0,1,4.46,6.9,16.86,16.86,0,0,1,.55,2.9,14.08,14.08,0,0,1-.81,6.44,12.84,12.84,0,0,1-2.59,4.41,2.38,2.38,0,0,0-.47,1.56,28.69,28.69,0,0,1-2.16,7.65c-.6,1.37-1.34,2.67-2.07,4a9.87,9.87,0,0,0-.64,1.85c-.65,2.07-1.27,4.15-1.93,6.22-1.37,4.3-2.86,8.56-4.56,12.73a22.36,22.36,0,0,1-2.3,4.52,2.13,2.13,0,0,1-.85.75.71.71,0,0,1-1-.32,3.49,3.49,0,0,1-.42-1.59,30.7,30.7,0,0,1-.11-5.07c.2-2.8,0-5.59.11-8.45a29.88,29.88,0,0,1-19,2.61c.09,1.48-.12,3,.11,4.45a9,9,0,0,1,0,1.27,39.58,39.58,0,0,1-.22,5.76,3,3,0,0,1-.22.77c-.38.91-1,.82-1.55.31a4.66,4.66,0,0,1-1-1.34,66.49,66.49,0,0,1-3.57-8.44c-.64-1.81-1.28-3.62-1.88-5.44a.74.74,0,0,0-.32-.48c-.34,1-.68,1.91-1,2.87-1.29,3.78-2.65,7.54-4.16,11.24-.81,1.94-1.67,3.86-2.66,5.71A6.48,6.48,0,0,1,53.9,191a5.54,5.54,0,0,1-.59.32H53a1.37,1.37,0,0,1-1.06-1.08,8.54,8.54,0,0,1-.4-2.12,78.4,78.4,0,0,1-.06-9.07c.08-1.7,0-3.4,0-5.09,0-.61,0-1.22,0-1.83s-.1-.59-.61-.44a33.32,33.32,0,0,1-3.57.76,35.27,35.27,0,0,1-18.44-2c-.76-.3-.76-.3-.76.54,0,1.44,0,2.88,0,4.32-.06,3.37.19,6.75.11,10.13A32.05,32.05,0,0,1,28,189a6.11,6.11,0,0,1-.33,1.34,1.34,1.34,0,0,1-1,1h-.44a2.45,2.45,0,0,1-1.48-1.08,24.91,24.91,0,0,1-2.58-4.76,220.48,220.48,0,0,1-7.81-21.44c-.83-2.55-1.62-5.11-2.43-7.66a10.38,10.38,0,0,0-.89-1.72A34.68,34.68,0,0,1,7.06,143a33.41,33.41,0,0,1-.32-6.85c.14-2.56.35-5.11.61-7.66.33-3.24.71-6.46,1.12-9.68.45-3.48,1-7,1.5-10.42.56-3.64,1.16-7.26,1.77-10.89a8.52,8.52,0,0,0-.17-2.14,38.35,38.35,0,0,1,0-5.36,60,60,0,0,1,.88-6.42A113.41,113.41,0,0,1,15.2,72.35c.76-2.55,1.67-5,2.46-7.59a48.23,48.23,0,0,0,1.11-5.37c.07-.37-.12-.34-.37-.27a29.68,29.68,0,0,0-4.1,1.53c-1.88.84-3.69,1.79-5.53,2.71a12.5,12.5,0,0,1-2.32.89,4.7,4.7,0,0,1-5.4-1.91,5.43,5.43,0,0,1-1-2.92v-2.1c.12-.59.22-1.18.38-1.75a21,21,0,0,1,2.1-5,38.92,38.92,0,0,1,3.13-4.68C6.93,44.2,8.35,42.6,9.79,41c1.22-1.35,2.56-2.57,3.88-3.81a42.16,42.16,0,0,1,3.91-3.28l3.15-2.38A57.29,57.29,0,0,1,26.28,28a40.41,40.41,0,0,1,5.08-2.48c.26-.1.23-.3.23-.49,0-.91,0-1.81,0-2.72-.06-1.6.06-3.2.15-4.79.1-1.75.28-3.5.5-5.24a43.7,43.7,0,0,1,2.12-9.18A10,10,0,0,1,35.51.81a1.85,1.85,0,0,1,3.09,0,8.75,8.75,0,0,1,1.18,3.52c.23,1.24.4,2.49.55,3.74.12.94.18,1.88.23,2.82.08,1.43.21,2.85.26,4.27,0,.56,0,1.13.08,1.69.13,1.32.05,2.65.13,4,0,.69.09,1.38.09,2.08,0,.25,0,.34.32.35a24.92,24.92,0,0,1,8.11,1.54l.66.24c0-.61.1-1.19.09-1.76,0-1.45.12-2.9.15-4.35,0-1.69.19-3.38.32-5.07.12-1.52.24-3,.45-4.55a30.69,30.69,0,0,1,1.43-7A3.24,3.24,0,0,1,54.23.24,2.28,2.28,0,0,1,57,1.34a18.69,18.69,0,0,1,2,4.59c.41,1.29.73,2.6,1,3.92a37.35,37.35,0,0,1,.75,4.07c.17,1.36.38,2.71.55,4.07.05.45.08.92.09,1.36,0,.94.09,1.87.16,2.8.13,1.6,0,3.2.1,4.8.07,1.09-.08,2.17,0,3.27Z" style="fill:#1e191a;fill-rule:evenodd"/><path d="M102.73,131.48a26.79,26.79,0,0,1,1.73,5.09c.22,1,.4,2,.52,3.08a23.53,23.53,0,0,1,.2,3.93,27.92,27.92,0,0,1-1.9,9.12,26.25,26.25,0,0,1-3.66,6.51,27.34,27.34,0,0,1-4.17,4.37,28.13,28.13,0,0,1-6.23,4,26.33,26.33,0,0,1-6.67,2.06A25.77,25.77,0,0,1,77,170a27.9,27.9,0,0,1-6.34-1,30.85,30.85,0,0,1-5.4-2.11c-.93-.46-.91-.46-.6-1.44.69-2.13,1.35-4.26,2-6.45a1.58,1.58,0,0,0-.69.56A21.27,21.27,0,0,1,61.29,164a49.78,49.78,0,0,1-5.51,3.25,36.65,36.65,0,0,1-8.05,2.63,32.65,32.65,0,0,1-7.89.51A31.15,31.15,0,0,1,33,169.18a32.55,32.55,0,0,1-6.24-2.47,33.89,33.89,0,0,1-5.46-3.6,35.34,35.34,0,0,1-3.85-3.69,30.46,30.46,0,0,1-3.78-5.22,31.94,31.94,0,0,1-2.9-6.52,33.79,33.79,0,0,1-1.21-5.38,30.34,30.34,0,0,1-.29-6c.09-1.73.2-3.48.4-5.21.1-.95.17-1.92.26-2.88.12-1.2.22-2.41.41-3.61.17-1,.21-2.12.36-3.18s.28-2,.4-3c.15-1.19.33-2.36.48-3.55.18-1.39.42-2.77.63-4.16.16-1.08.31-2.17.48-3.26.19-1.26.4-2.51.6-3.78.12-.79.26-1.59.39-2.38,0-.1-.05-.25.1-.27s.17.1.24.19a15.8,15.8,0,0,0,4.79,4.08,19.51,19.51,0,0,0,5.95,2.12,27.94,27.94,0,0,0,7,.33A48.58,48.58,0,0,0,41,106.09c.75-.2,1.5-.43,2.24-.65.41-.06.59.12.61.52,0,.56-.1,1.15.38,1.61.1.11.06.32.07.49a2,2,0,0,0,.38,1.3,2.35,2.35,0,0,1,.63,1.59c0,.53.41.92.6,1.39a3.72,3.72,0,0,0,1,1.53c.1.07.11.23.13.36a.66.66,0,0,0,.09.31c1.13,1.09,1.74,2.63,3.1,3.52a4.57,4.57,0,0,1,.67.65,1.46,1.46,0,0,0,.87.56.5.5,0,0,1,.34.25,1.45,1.45,0,0,0,1.1.75.45.45,0,0,1,.29.16,5.55,5.55,0,0,0,2.09,1.21,10.05,10.05,0,0,1,1.25.44,9.37,9.37,0,0,0,1.59.6,2.92,2.92,0,0,0,1.12.34.37.37,0,0,1,.3.12,1.17,1.17,0,0,0,1,.3,1.34,1.34,0,0,1,1.08.31c.19.2.49.12.74.13.58,0,1.19-.13,1.68.36.13.14.39.08.59.08h2.55a1,1,0,0,1,.81.26.78.78,0,0,0,.62.18h7.65a.84.84,0,0,0,.7-.25.86.86,0,0,1,.68-.19q5.64,0,11.3,0a1,1,0,0,1,.76.25c.25.27.58.17.89.19s.83,0,1.07.4a.2.2,0,0,0,.18.11,6.66,6.66,0,0,1,1.33.4,10.86,10.86,0,0,1,1.64.54c.35.12.62.36,1,.5.68.29,1.34.62,2,.92.12,0,.18.18.26.28a1.37,1.37,0,0,0,.92.65c.27,0,.41.3.62.44a6.73,6.73,0,0,1,1.89,1.37A5.67,5.67,0,0,0,102.73,131.48Z" style="fill:#fefefe;fill-rule:evenodd"/><path d="M46.89,68.31a42,42,0,0,1-26.45-2.69c-.34-3,1.24-6.66,1.62-9.86-6.06.55-11,4.17-16.62,6.16-10.73-2.2,9.31-24.35,13.33-25.78C24.76,34,30,40.48,32.23,35c3.59,7.53,17.88,9.18,21.56.8.11-.62.19-1.15,1-1.11.59.91-.3,1.61-.27,2.5,0,.58.11,1.18-.37,1.67-.24.57.14,1.31-.41,1.83-.33.54.14,1.34-.41,1.83-.38.53.16,1.36-.52,1.78-.5.7.2,1.75-.55,2.44-.22.57.16,1.33-.42,1.83-.26.54.14,1.29-.44,1.77-.27.59.14,1.38-.46,1.93-.25.56.15,1.32-.42,1.83-.33.5.2,1.33-.49,1.71-.45.54.15,1.43-.52,1.95-.27.6.16,1.39-.46,1.93-.23.53.14,1.24-.41,1.71-.18.16-.1.46-.1.69.17.75-.6,1.19-.45,1.93s-.62,1.22-.44,2c0,.34,0,.67-.36.87C46.82,67.26,47.25,67.9,46.89,68.31Z" style="fill:#fff;fill-rule:evenodd"/><path d="M20.29,58.58l-.65.12c-.74,0-.51-.54-.51-1.27l1-.06c0-.73.26-1.5,1-1.5L26,54.05c.73,0-2.77,3.33-4.61,3.83L21,58C21,58.69,21,58.58,20.29,58.58Z" style="fill:#231f20;fill-rule:evenodd"/><path d="M43.22,102.41a24.61,24.61,0,0,1-3.54,1.11,44.86,44.86,0,0,1-5.12,1.1c-.8.13-1.63.19-2.44.28a30.6,30.6,0,0,1-3.58.07,17.45,17.45,0,0,1-7.89-1.87A14.06,14.06,0,0,1,16,99.24a8.32,8.32,0,0,1-1.49-4.16,23.36,23.36,0,0,1-.08-4.18c.05-1.23.23-2.46.4-3.68.24-1.68.57-3.34.9-5,.41-2.08.92-4.14,1.48-6.19.67-2.44,1.46-4.85,2.19-7.28.12-.41.23-.43.63-.25A38.21,38.21,0,0,0,27.54,71c1.66.38,3.34.6,5,.86.39.06.8.07,1.19.1a43.94,43.94,0,0,0,6.07.11,35.63,35.63,0,0,0,5.73-.63,2.16,2.16,0,0,1,.44,0,1.35,1.35,0,0,1,0,1.42,1.63,1.63,0,0,0-.28.92c0,.56.58,1.06.15,1.56-.21.24-.08.64-.08,1a1.69,1.69,0,0,1-.34,1.29c-.17.17-.1.46-.11.7,0,.42,0,.85,0,1.27,0,.22,0,.47-.21.6a.82.82,0,0,0-.33.83c0,.4,0,.81,0,1.21,0,.17,0,.37-.06.49-.56.66-.34,1.44-.37,2.17,0,.53.07,1.07-.36,1.52-.13.12-.09.35-.09.53,0,.72,0,1.44,0,2.16a2,2,0,0,1-.35,1.52c-.15.15-.09.42-.09.64,0,3.37-.51,6.79-.52,10.15A2.43,2.43,0,0,0,43.22,102.41Z" style="fill:#f7941e;fill-rule:evenodd"/><path d="M43.34,105.88l-.12-.44L47,104.1c1.58-.56,3.13-1.23,4.67-1.9,2-.88,4-1.88,6-2.88q.93-.46,1.83-1c.31-.19.46-.14.58.18a28.69,28.69,0,0,0,3,5.69,26.62,26.62,0,0,0,11.44,9.68,20.06,20.06,0,0,0,5.68,1.73,35.72,35.72,0,0,1,4.73.83,27.13,27.13,0,0,1,6.34,2.6A27.51,27.51,0,0,1,98.54,125a28,28,0,0,1,3.43,5c.27.5.53,1,.76,1.52-.46.11-.58-.6-1.85-.76l-1.2-1.2c-5-5.11-13.76-5.6-21.35-4.55-15.64,2.16-23.88-3.71-24-3.79C49.36,118.25,46.16,115.19,43.34,105.88Z" style="fill:#c1c1c1;fill-rule:evenodd"/><path d="M60.36,71.62c-.31-1.86-.62-3.68-.93-5.5,0-.3-.07-.61-.14-.91-.22-1,.35-1.49,1-2a44.87,44.87,0,0,1,6.44-4,35.38,35.38,0,0,1,8.39-2.92,33.94,33.94,0,0,1,3.75-.57c1.28-.11,2.55-.21,3.83-.21a2.19,2.19,0,0,1,.85.17c.55.23.65.51.48,1.09a10.71,10.71,0,0,0-.59,2.86,3.13,3.13,0,0,0,3.19,3.21,10.55,10.55,0,0,0,4.73-1,61.31,61.31,0,0,1,7.11-2.17q4.42-1.11,8.91-2c1.74-.33,3.51-.49,5.25-.81a23.07,23.07,0,0,1,3.82-.21A46.09,46.09,0,0,0,115,61.71c-.61,2.69-1.27,5.36-1.82,8.05a10,10,0,0,0-.25,2.56.42.42,0,0,1-.4.52c-1.72.29-3.43.53-5.17.68-3.27.29-6.55.17-9.82.2-1.24,0-2.48,0-3.71,0-1.85,0-3.71-.09-5.55-.24a29.62,29.62,0,0,1-6.07-.87c-1-.28-1.14-.57-.9-1.5A10.47,10.47,0,0,0,81.81,68a2.52,2.52,0,0,0-2.22-2.5A10.46,10.46,0,0,0,75,66a89.13,89.13,0,0,0-8.83,3.15C64.26,70,62.33,70.8,60.36,71.62Z" style="fill:#f7941e;fill-rule:evenodd"/><path d="M59.31,95.32l-7.62,4c-8.59,3.13-9,4.34-9,.94l.17-7.21c0-.19.32-4.21.34-4.4.18-1.66,1.09-7.9,1.11-8.06.8-5,1.14-7.85,1.38-9.19l5.95-1.73c2.6,0,5.53-3.18,5.53-.58L59,81.79C59.2,84.51,61,94.77,59.31,95.32Z" style="fill:#c67b2f;fill-rule:evenodd"/><path d="M55.21,33.72c-.22.15,2.32.53,2.1.68-.41.27-.72,1.45-1.19,1.32s-1.27,3.13-1.85,3.11C53,38.77,49.34,43.19,48,43.12c-1.7-.07-3.78-.69-5.48-.79-.62,0-4.37,1.16-5,1.12C35.66,43.33,36,42.17,34.12,42c-2.85,1.05-10.46.24-13.52.23-1.54-.13-1-5.63-2.57-5.66-.21,0,6.29-4.44,5.93-4.36a46.19,46.19,0,0,1,9.71-5c.54-.19.39-.64.33-1-.25-7.79,0-15.9,3-23.21,5.66,31.54-6.22,17.28,15.4,25.72C53,20,52.5,11.05,55,2.63c3.7,6.59,3.09,14.66,1.81,21.61.11,1.89-.5,3.07-.54,5-.77.78.1,2-.73,2.66C55.13,32.41,55.59,33.18,55.21,33.72Z" style="fill:#fff;fill-rule:evenodd"/><path d="M54.75,34.73c1.37-.4,2.75-.79,4.11-1.2.26-.08.33,0,.33.23A25.83,25.83,0,0,1,59,36.93c-.07.54-.07,1.09-.1,1.64-.08,1.16-.21,2.32-.27,3.49-.08,1.54-.36,3.09-.52,4.63-.1.94-.15,1.89-.23,2.83-.15,1.61-.3,3.22-.44,4.83-.05.62-.07,1.24-.09,1.86,0,1.06-.11,2.12-.16,3.18-.08,1.83-.22,3.66-.19,5.49a.46.46,0,0,1-.35.48,57.6,57.6,0,0,1-9.35,2.93c-.12,0-.51.09-.64.09" style="fill:#c2c1c1;fill-rule:evenodd"/><path d="M57.53,9.75a21.87,21.87,0,0,1,.65,3c.22,1.15.4,2.31.55,3.47.11.79.17,1.59.24,2.38.24,2.77.34,5.55.35,8.33,0,1.44-.22,5.6-.13,7,0,.22-.12.28-.26.35-1.32.65-2.42,1.43-4.18.44" style="fill:#c2c1c1;fill-rule:evenodd"/><path d="M107.52,141.19a30,30,0,0,0-6.35-16.78C106.67,126.62,111.12,134.11,107.52,141.19Z" style="fill:#fff;fill-rule:evenodd"/><circle cx="24.03" cy="36.51" r="8.01" style="fill:#231f20"/><circle cx="24.03" cy="36.51" r="6.31" style="fill:#fff"/><circle cx="25.52" cy="37.6" r="3.66" style="fill:#231f20"/><circle cx="23.68" cy="36.84" r="0.85" style="fill:#fff"/><circle cx="39.25" cy="37.14" r="9.64" style="fill:#231f20"/><circle cx="39.25" cy="37.02" r="7.61" style="fill:#fff"/><circle cx="35.63" cy="37.79" r="3.66" style="fill:#231f20"/><circle cx="33.8" cy="36.64" r="0.85" style="fill:#fff"/></g></g></svg>