<svg xmlns="http://www.w3.org/2000/svg" viewBox="0 0 361.98 68.1"><g id="Camada_2" data-name="Camada 2"><g id="Layer_1" data-name="Layer 1"><g style="opacity:0.97"><path d="M36.62,66.76,26.06,66.7,24.31,54.62l-12.84-.06L9.61,66.63,0,66.58,11,.05,26.28.12ZM12.84,45.53l10.09,0L18.14,11.88H18Z" style="fill:#231f20"/><path d="M41.78.2l10.47,0L52,57.32l17.22.08,0,9.51-27.68-.13Z" style="fill:#231f20"/><path d="M105,17l0,8.65C104.87,36.26,99.71,42,89.24,42L84.3,42l-.12,25-10.46,0L74,.35,89.44.42C99.9.47,105,6.3,105,17Zm-20.51-7-.11,22.54,5,0c3.33,0,5.14-1.5,5.16-6.26l0-10c0-4.75-1.78-6.28-5.11-6.3Z" style="fill:#231f20"/><path d="M142.2,67.25l-10.56,0L129.9,55.11l-12.85-.06-1.86,12.07-9.61,0,11-66.53,15.31.07ZM118.43,46l10.08,0-4.79-33.69h-.19Z" style="fill:#231f20"/><path d="M177.42,42.59l0,8.85c0,10.65-5.41,16.71-15.68,16.66s-15.57-6.16-15.52-16.81l.16-34.62C146.39,6,151.75,0,162,0s15.57,6.16,15.52,16.81l0,6.47-9.89-.05,0-7.13c0-4.75-2.06-6.57-5.39-6.59s-5.43,1.79-5.45,6.54l-.17,36c0,4.76,2.06,6.48,5.39,6.5s5.43-1.69,5.45-6.45l.05-9.51Z" style="fill:#231f20"/><path d="M217.54,67.6l-10.56,0-1.75-12.08-12.84-.06-1.87,12.07-9.6,0L191.88.9,207.2,1ZM193.76,46.38l10.08,0-4.79-33.7h-.18Z" style="fill:#231f20"/></g><path d="M265.93,31.12h-.18L261.93,66,247.78,66l-7-65.61,10,0L256,52.15h.19L261.3.47l9.93,0L276,52.62h.19L281.72.56l9,0L283.1,66.14l-13.68-.06Z" style="fill:#231f20"/><path d="M306,28.31l14.15.07-.05,9.36L306,37.68l-.09,19.2,17.8.09,0,9.36-28.1-.13L295.87.63,324,.76l0,9.37L306.13,10Z" style="fill:#231f20"/><path d="M361.09,16v2.35c0,6.74-2.11,11-6.71,13.08v.19c5.51,2.18,7.64,7.06,7.61,14L362,51c0,10.12-5.42,15.53-15.72,15.48L330,66.36l.3-65.57,15.55.07C356.57.91,361.14,5.9,361.09,16Zm-20.49-5.8-.08,17.33h4c3.84,0,6.19-1.65,6.21-6.9l0-3.65c0-4.69-1.56-6.75-5.21-6.77Zm-.12,26.69L340.38,57l5.91,0c3.46,0,5.34-1.57,5.36-6.44l0-5.71c0-6.09-1.93-8-6.61-8Z" style="fill:#231f20"/></g></g></svg>