<svg xmlns="http://www.w3.org/2000/svg" viewBox="0 0 217.54 146.59"><g id="Camada_2" data-name="Camada 2"><g id="Layer_1" data-name="Layer 1"><g style="opacity:0.97"><path d="M36.62,66.76,26.06,66.7,24.31,54.62l-12.84-.06L9.61,66.63,0,66.58,11,.05,26.28.12ZM12.84,45.53l10.09,0L18.14,11.88H18Z" style="fill:#FFF"/><path d="M41.78.2l10.47,0L52,57.32l17.22.08,0,9.51-27.68-.13Z" style="fill:#FFF"/><path d="M105,17l0,8.65C104.87,36.26,99.71,42,89.24,42L84.3,42l-.12,25-10.46,0L74,.35,89.44.42C99.9.47,105,6.3,105,17Zm-20.51-7-.11,22.54,5,0c3.33,0,5.14-1.5,5.16-6.26l0-10c0-4.75-1.78-6.28-5.11-6.3Z" style="fill:#FFF"/><path d="M142.2,67.25l-10.56,0L129.9,55.11l-12.85-.06-1.86,12.07-9.61,0,11-66.53,15.31.07ZM118.43,46l10.08,0-4.79-33.69h-.19Z" style="fill:#FFF"/><path d="M177.42,42.59l0,8.85c0,10.65-5.41,16.71-15.68,16.66s-15.57-6.16-15.52-16.81l.16-34.62C146.39,6,151.75,0,162,0s15.57,6.16,15.52,16.81l0,6.47-9.89-.05,0-7.13c0-4.75-2.06-6.57-5.39-6.59s-5.43,1.79-5.45,6.54l-.17,36c0,4.76,2.06,6.48,5.39,6.5s5.43-1.69,5.45-6.45l.05-9.51Z" style="fill:#FFF"/><path d="M217.54,67.6l-10.56,0-1.75-12.08-12.84-.06-1.87,12.07-9.6,0L191.88.9,207.2,1ZM193.76,46.38l10.08,0-4.79-33.7h-.18Z" style="fill:#FFF"/></g><path d="M120.26,111.27h-.19l-3.82,34.93-14.14-.07-7-65.61,10,0,5.19,51.73h.19l5.12-51.68,9.92,0,4.82,52.11h.19L136,80.71l9,.05-7.62,65.54-13.67-.07Z" style="fill:#FFF"/><path d="M160.37,108.46l14.14.07,0,9.37-14.15-.07-.09,19.2,17.8.09,0,9.37-28.11-.14.31-65.57,28.1.13,0,9.37-17.8-.08Z" style="fill:#FFF"/><path d="M215.41,96.17v2.34c0,6.74-2.11,10.95-6.71,13.09v.18c5.52,2.18,7.65,7.06,7.62,14l0,5.33c-.05,10.12-5.41,15.53-15.72,15.48l-16.2-.07.31-65.58,15.55.08C210.9,81.07,215.46,86.05,215.41,96.17Zm-20.48-5.81-.08,17.33,4,0c3.84,0,6.19-1.66,6.22-6.91l0-3.65c0-4.68-1.56-6.75-5.22-6.77Zm-.13,26.69-.09,20.15,5.9,0c3.46,0,5.35-1.56,5.37-6.43l0-5.72c0-6.09-1.93-8-6.62-8Z" style="fill:#FFF"/></g></g></svg>