<?xml version="1.0" standalone="no"?>
<svg viewBox="0 0 200 200" xmlns="http://www.w3.org/2000/svg">
  <path fill="#FF0066" d="M30.2,-49.1C39.2,-47.2,46.6,-39.2,54,-30C61.4,-20.8,68.7,-10.4,71.7,1.7C74.7,13.8,73.3,27.6,66.2,37.3C59.1,47,46.3,52.6,34.4,51.3C22.4,50.1,11.2,42,0.1,41.7C-10.9,41.4,-21.8,49,-31.5,49C-41.1,48.9,-49.6,41.2,-59.2,31.8C-68.8,22.3,-79.6,11.2,-79.8,-0.1C-80.1,-11.4,-69.7,-22.8,-61.9,-35.5C-54.1,-48.1,-49,-62,-39.1,-63.5C-29.2,-65,-14.6,-54,-2,-50.5C10.6,-47,21.2,-51.1,30.2,-49.1Z" transform="translate(100 100)" />
</svg>
