<?xml version="1.0" standalone="no"?>
<svg viewBox="0 0 200 200" xmlns="http://www.w3.org/2000/svg">
  <path fill="#FF0066" d="M20.4,-28.1C31.3,-29,48.5,-33.5,52.8,-29.4C57.1,-25.3,48.5,-12.6,44,-2.6C39.5,7.5,39.2,15,40.8,29.3C42.5,43.6,46.1,64.8,39.6,71.7C33.1,78.5,16.6,70.9,5.7,61.1C-5.2,51.3,-10.4,39.1,-24.1,36.4C-37.7,33.8,-59.9,40.6,-73,36.1C-86.1,31.6,-90.3,15.8,-85.6,2.7C-80.9,-10.3,-67.3,-20.7,-56.2,-28.7C-45.1,-36.7,-36.4,-42.3,-27.4,-42.6C-18.5,-42.8,-9.2,-37.7,-2.3,-33.8C4.7,-29.9,9.4,-27.2,20.4,-28.1Z" transform="translate(100 100)" />
</svg>
