<?xml version="1.0" standalone="no"?>
<svg viewBox="0 0 200 200" xmlns="http://www.w3.org/2000/svg">
  <path fill="#FF0066" d="M31.2,-54.7C37.3,-50.4,37.2,-35.9,37.8,-25.1C38.4,-14.3,39.8,-7.1,47,4.2C54.2,15.4,67.2,30.9,68,44.1C68.8,57.3,57.3,68.3,43.9,66C30.5,63.6,15.3,48,2.9,43C-9.5,38,-19,43.8,-31.9,45.8C-44.7,47.8,-60.8,46.1,-61.3,37.9C-61.7,29.6,-46.4,14.8,-39.6,3.9C-32.8,-7,-34.5,-13.9,-35.6,-24.8C-36.7,-35.7,-37.2,-50.6,-31.2,-54.9C-25.2,-59.3,-12.6,-53.2,0,-53.1C12.5,-53,25,-59,31.2,-54.7Z" transform="translate(100 100)" />
</svg>
