<svg xmlns="http://www.w3.org/2000/svg" viewBox="0 0 406.97 69.14"><g id="Camada_2" data-name="Camada 2"><g id="Camada_1-2" data-name="Camada 1"><g id="Camada_2-2" data-name="Camada 2"><g id="Layer_1" data-name="Layer 1"><path d="M0,20.67c0-.21.08-.42.14-.63a7.45,7.45,0,0,1,.75-1.8A14.94,14.94,0,0,1,2,16.56c.48-.61,1-1.19,1.51-1.77s.92-.93,1.4-1.37a14.32,14.32,0,0,1,1.4-1.18s.08-.07.06-.12a2,2,0,0,1,0-.54c0-.11,0-.15.14-.13a5.82,5.82,0,0,1,.6.05.47.47,0,0,0,.38-.11,19.94,19.94,0,0,1,2-1.28,15.52,15.52,0,0,1,1.83-.9c.1,0,.08-.1.08-.17v-1a16.67,16.67,0,0,1,.06-1.73c.05-.58.1-1.26.18-1.89a15.07,15.07,0,0,1,.77-3.3,3.54,3.54,0,0,1,.4-.86.67.67,0,0,1,.93-.16.61.61,0,0,1,.16.16,3.19,3.19,0,0,1,.43,1.27c.08.45.14.9.2,1.35s.06.68.08,1c0,.51.08,1,.09,1.53v.61c.05.48,0,1,.05,1.43,0,.25,0,.5,0,.75,0,.09,0,.13.12.13a9.09,9.09,0,0,1,2.92.54L18,9c0-.22,0-.43,0-.63,0-.55.05-1,.06-1.57s.06-1.22.11-1.83.09-1.09.17-1.63A10.41,10.41,0,0,1,18.92.8a1.17,1.17,0,0,1,.54-.74.82.82,0,0,1,1,.39,7.39,7.39,0,0,1,.71,1.63c.15.47.27.94.37,1.41A10.87,10.87,0,0,1,21.81,5c.06.49.13,1,.19,1.47,0,.16,0,.33,0,.49,0,.34,0,.67.06,1,0,.58,0,1.15,0,1.73,0,.39,0,.78,0,1.18,0,.1,0,.14.14.14a.83.83,0,0,1,.44.06.59.59,0,0,1,.26.39c0,.11-.07.12-.14.15s-.37.11-.54.14a.21.21,0,0,0-.19.21v0a7.91,7.91,0,0,1-.06,1.19,15.93,15.93,0,0,1-.14,1.59c0,.23,0,.45,0,.67-.07.62-.14,1.24-.2,1.85l-.09,1.09c0,.63-.11,1.25-.15,1.88,0,.27,0,.54,0,.81s-.06.54-.05.85A15.85,15.85,0,0,1,22.86,21a13.84,13.84,0,0,1,1.49-.75,13,13,0,0,1,2.43-.78c.39-.08.78-.14,1.17-.19a12,12,0,0,1,2-.11,1.75,1.75,0,0,1,.92.26.85.85,0,0,1,.36.88c-.07.33-.15.67-.19,1s.23.61.6.5c1.26-.39,2.53-.79,3.81-1.15.83-.23,1.67-.41,2.52-.58.64-.13,1.29-.24,1.94-.35.41-.06.83-.07,1.25-.12a3.54,3.54,0,0,1,.73,0,2.57,2.57,0,0,1,.87.15.42.42,0,0,1,.3.5l0,.05a10.17,10.17,0,0,0-.71,2.23c-.21.93-.41,1.86-.63,2.79a4.1,4.1,0,0,0,0,1.26c0,.27-.09.36-.34.43a11.7,11.7,0,0,1-1.93.36c-.47.06-1,.06-1.44.09-1.33.06-2.67,0-4,0a17.39,17.39,0,0,1-2-.08A12.72,12.72,0,0,1,29.5,27a1.7,1.7,0,0,1-.89-.46s-.1-.11-.1-.18a4.22,4.22,0,0,1,0-.87,4.05,4.05,0,0,1,.07-.7v0c0-.13.12-.31,0-.36a1,1,0,0,0-.55,0,12.25,12.25,0,0,0-2,.64c-1.09.36-2.11.78-3.14,1.23-.29.12-.55.23-.86.34-.07,0-.13.07-.11.18l.15,1c0,.34.08.7.13,1s.09.87.15,1.3.06.6.09.9a25.28,25.28,0,0,1,.08,2.61,2.75,2.75,0,0,1-.18,1.06c-.06.15,0,.26.08.37A11.9,11.9,0,0,0,24,37.8a9,9,0,0,0,2.34,2,7.55,7.55,0,0,0,2.55,1c.67.09,1.33.21,2,.36a13.1,13.1,0,0,1,1.48.54,10.88,10.88,0,0,1,1.8,1,9.42,9.42,0,0,1,1,.84c.17.14.37.1.55.15A6,6,0,0,1,38.25,45a5.35,5.35,0,0,1,1.63,2.49,6.09,6.09,0,0,1,.2,1,5.13,5.13,0,0,1-.35,2.29,4.85,4.85,0,0,1-.94,1.59.81.81,0,0,0-.17.54,10.07,10.07,0,0,1-.78,2.75,13.93,13.93,0,0,1-.74,1.44,3.32,3.32,0,0,0-.23.67c-.24.75-.46,1.49-.7,2.24q-.73,2.32-1.63,4.59a8.93,8.93,0,0,1-.83,1.63.84.84,0,0,1-.31.28.26.26,0,0,1-.35-.09s0,0,0,0a1.33,1.33,0,0,1-.15-.55,11.19,11.19,0,0,1,0-1.83c.07-1,0-2,0-3a10.84,10.84,0,0,1-6.84.94c0,.54,0,1.09,0,1.63a3.53,3.53,0,0,1,0,.46A13.16,13.16,0,0,1,26,66.1a.9.9,0,0,1-.07.27c-.15.33-.35.3-.55.11A1.55,1.55,0,0,1,25,66a26.08,26.08,0,0,1-1.28-3c-.24-.66-.46-1.31-.68-2a.21.21,0,0,0-.12-.17l-.36,1c-.46,1.36-.95,2.72-1.5,4-.29.7-.6,1.39-.95,2.06a2.34,2.34,0,0,1-.69.9l-.21.11h-.12a.48.48,0,0,1-.38-.39,2.85,2.85,0,0,1-.15-.76,29.73,29.73,0,0,1,0-3.27c0-.61,0-1.22,0-1.84v-.66c0-.22,0-.2-.22-.15-.43.11-.85.2-1.29.27a12.64,12.64,0,0,1-6.64-.71c-.27-.11-.27-.11-.27.2v1.55c0,1.22.07,2.43,0,3.65,0,.42,0,.85-.09,1.27a3.89,3.89,0,0,1-.12.49.5.5,0,0,1-.37.35H9.46a.87.87,0,0,1-.55-.39A9.2,9.2,0,0,1,8,66.87a78.19,78.19,0,0,1-2.81-7.72c-.3-.92-.58-1.84-.88-2.76A3,3,0,0,0,4,55.77a12.58,12.58,0,0,1-1.4-4.22,11.34,11.34,0,0,1-.12-2.47c0-.92.13-1.84.22-2.76.12-1.17.26-2.32.4-3.49s.35-2.5.55-3.75.42-2.62.64-3.92a3.42,3.42,0,0,0-.06-.78,12.43,12.43,0,0,1,0-1.93,22.48,22.48,0,0,1,.31-2.31,39.48,39.48,0,0,1,1-4c.28-.92.61-1.83.89-2.72a15.89,15.89,0,0,0,.4-1.94c0-.13,0-.12-.13-.09a9.7,9.7,0,0,0-1.48.54,13.77,13.77,0,0,0-2,1,4.7,4.7,0,0,1-.84.32,1.69,1.69,0,0,1-1.94-.71A2,2,0,0,1,0,21.4Z" style="fill:#1e191a;fill-rule:evenodd"/><path d="M37,47.37a9.18,9.18,0,0,1,.62,1.83c.08.37.14.74.19,1.09a8.4,8.4,0,0,1,.07,1.42,10.49,10.49,0,0,1-2,5.65,9.35,9.35,0,0,1-1.51,1.57,10,10,0,0,1-2.25,1.44,10.09,10.09,0,0,1-4.39.89,10.31,10.31,0,0,1-2.28-.35,11,11,0,0,1-1.95-.76c-.34-.17-.33-.17-.22-.55.25-.76.49-1.53.74-2.33a.64.64,0,0,0-.25.21,7.5,7.5,0,0,1-1.71,1.57,18.71,18.71,0,0,1-2,1.17,13.49,13.49,0,0,1-2.9,1,12.35,12.35,0,0,1-2.85.18,11.59,11.59,0,0,1-2.48-.42A12.11,12.11,0,0,1,9.64,60a12.82,12.82,0,0,1-2-1.27,13.46,13.46,0,0,1-1.39-1.33A11.11,11.11,0,0,1,4.9,55.55a11.67,11.67,0,0,1-1-2.34,13.21,13.21,0,0,1-.43-1.94,10.59,10.59,0,0,1-.1-2.18c0-.63.07-1.25.14-1.88l.09-1c0-.35.08-.86.15-1.3s.07-.76.13-1.14.1-.73.14-1.09l.18-1.27c0-.43.14-1,.22-1.51l.18-1.17c.05-.39.14-.9.21-1.36l.13-.85s0-.08,0-.09.06,0,.09.07a5.66,5.66,0,0,0,1.72,1.47,7.07,7.07,0,0,0,2.18.76,9.68,9.68,0,0,0,2.52.12,18,18,0,0,0,3.34-.59l.81-.23c.14,0,.21,0,.21.18s0,.42.14.58,0,.12,0,.18a.78.78,0,0,0,.13.47.81.81,0,0,1,.23.57c0,.19.14.33.21.5a1.28,1.28,0,0,0,.37.54s0,.08.05.13a.2.2,0,0,0,0,.11c.4.39.63,1,1.09,1.27a1.36,1.36,0,0,1,.24.24.58.58,0,0,0,.31.2.18.18,0,0,1,.13.09.5.5,0,0,0,.39.27.12.12,0,0,1,.1,0,2.08,2.08,0,0,0,.76.44,3.9,3.9,0,0,1,.45.16,3.71,3.71,0,0,0,.55.22,1.09,1.09,0,0,0,.4.12.15.15,0,0,1,.11,0,.4.4,0,0,0,.37.11.47.47,0,0,1,.38.11.37.37,0,0,0,.27,0c.21,0,.43,0,.61.13s.14,0,.21,0h1a.4.4,0,0,1,.29.1.29.29,0,0,0,.22.06H27.6a.29.29,0,0,0,.25-.09.32.32,0,0,1,.25-.07h4.07a.3.3,0,0,1,.27.09c.09.1.21.06.32.06a.42.42,0,0,1,.39.15.08.08,0,0,0,0,.1h0a2.9,2.9,0,0,1,.48.14,4.1,4.1,0,0,1,.59.2c.12,0,.22.13.35.18l.73.32s.06.07.09.11a.54.54,0,0,0,.33.24c.1,0,.15.1.22.15a2.23,2.23,0,0,1,.68.49A2.05,2.05,0,0,0,37,47.37Z" style="fill:#fefefe;fill-rule:evenodd"/><path d="M16.9,24.6a5.71,5.71,0,0,1-1,.2q-.75.11-1.5.15a10.7,10.7,0,0,1-1.79,0,3,3,0,0,1-.59,0,16.62,16.62,0,0,1-1.72-.27,14,14,0,0,1-2.39-.73l-.54-.25a.15.15,0,0,1-.09-.2c.21-.93.38-1.87.54-2.81,0-.18.08-.34.12-.54a6,6,0,0,0-.94.17,13.22,13.22,0,0,0-2.72,1c-.47.22-.91.48-1.38.69A5.28,5.28,0,0,1,2,22.3.83.83,0,0,1,1,21.79,1.88,1.88,0,0,1,.94,20.3a8.49,8.49,0,0,1,1.32-2.66c.36-.51.75-1,1.15-1.48.61-.71,1.29-1.35,2-2,.38-.38.81-.71,1.21-1.09.14-.12.16,0,.19.09a2.73,2.73,0,0,0,1.13,1,2.58,2.58,0,0,0,2.14,0,2.55,2.55,0,0,0,1.47-1.51.1.1,0,0,1,.11-.09.13.13,0,0,1,.13.1,3,3,0,0,0,1.39,1.51,5.14,5.14,0,0,0,2,.64,5,5,0,0,0,2.92-.5,2.46,2.46,0,0,0,1.3-1.46.15.15,0,0,0,0-.07c0-.22.1-.33.32-.33a.54.54,0,0,1,0,.6.46.46,0,0,0-.07.3.78.78,0,0,1-.13.61c-.05,0,0,.12,0,.19a.67.67,0,0,1-.12.47c-.07.07,0,.19,0,.28a.49.49,0,0,1-.12.37c-.07.08,0,.19,0,.29a.38.38,0,0,1-.14.36c-.08.05-.06.15-.06.24a.83.83,0,0,1-.14.64s0,.11,0,.17a.58.58,0,0,1-.12.49c-.05,0,0,.11,0,.17a.54.54,0,0,1-.13.46s0,.1,0,.16a.7.7,0,0,1-.14.54c-.05.05,0,.14,0,.21a.53.53,0,0,1-.12.45c-.07.06,0,.17,0,.26a.37.37,0,0,1-.14.35c-.15.08-.06.15-.06.23a.65.65,0,0,1-.13.48s0,.1,0,.15,0,.39-.14.54,0,.12,0,.18a.52.52,0,0,1-.12.44c-.06.06,0,.16,0,.25a.53.53,0,0,1-.12.42c-.07.07,0,.18,0,.27a.54.54,0,0,1-.12.41c-.08.08,0,.2,0,.31s0,.24-.13.31-.07.15-.07.24A.42.42,0,0,1,16.9,24.6Z" style="fill:#fff;fill-rule:evenodd"/><path d="M15.58,36.89a10,10,0,0,1-1.28.41c-.61.16-1.23.29-1.85.39-.29.05-.58.07-.87.1a9.26,9.26,0,0,1-1.29,0,6.39,6.39,0,0,1-2.85-.67,5.24,5.24,0,0,1-1.68-1.39,3,3,0,0,1-.54-1.5,7.62,7.62,0,0,1,0-1.51,11.82,11.82,0,0,1,.14-1.32c.09-.61.21-1.21.32-1.8.15-.76.33-1.5.55-2.24s.54-1.75.78-2.62c0-.15.09-.16.24-.09a13.53,13.53,0,0,0,2.72.89c.6.14,1.2.22,1.81.31a1.57,1.57,0,0,1,.43,0,15.72,15.72,0,0,0,2.17,0,13,13,0,0,0,2.07-.23h.16a.45.45,0,0,1,0,.5.67.67,0,0,0-.1.34c0,.2.21.38.06.54s0,.23,0,.35a.57.57,0,0,1-.12.47c-.06.06,0,.16,0,.25v.45c0,.16,0,.18-.09.22a.32.32,0,0,0-.12.3v.62c-.2.23-.12.54-.13.78s0,.39-.13.54,0,.13,0,.19v.85a.73.73,0,0,1-.13.54c-.05.06,0,.16,0,.23,0,1.21-.18,2.45-.19,3.66A.87.87,0,0,0,15.58,36.89Z" style="fill:#f7941e;fill-rule:evenodd"/><path d="M15.62,38.14l0-.15,1.36-.49c.57-.2,1.13-.44,1.68-.68.73-.32,1.44-.68,2.18-1,.22-.11.44-.24.66-.37s.16,0,.21.07a10.56,10.56,0,0,0,1.08,2.05A9.74,9.74,0,0,0,26.87,41a7.36,7.36,0,0,0,2.05.62,12.23,12.23,0,0,1,1.71.3,9.85,9.85,0,0,1,6.14,4.88,5.6,5.6,0,0,1,.27.55c-.16,0-.2-.22-.66-.28l-.46-.42c-1.81-1.85-5-2-7.7-1.64-5.63.77-8.6-1.34-8.63-1.37C17.78,42.6,16.64,41.5,15.62,38.14Z" style="fill:#c1c1c1;fill-rule:evenodd"/><path d="M21.77,25.8c-.12-.67-.22-1.33-.34-2a.76.76,0,0,0-.05-.33.64.64,0,0,1,.37-.71,15.45,15.45,0,0,1,2.32-1.44,12.9,12.9,0,0,1,3-1.06,12.38,12.38,0,0,1,1.36-.2c.45,0,.92-.07,1.38-.07a.52.52,0,0,1,.3.06c.2.08.23.18.18.39a4,4,0,0,0-.22,1,1.14,1.14,0,0,0,1.1,1.16h0A3.89,3.89,0,0,0,33,22.26a20.41,20.41,0,0,1,2.56-.77q1.59-.4,3.21-.72c.63-.12,1.26-.18,1.89-.29A9.13,9.13,0,0,1,42,20.4a16.73,16.73,0,0,0-.55,1.83c-.22,1-.46,1.93-.66,2.9a4,4,0,0,0-.08.92.16.16,0,0,1-.13.18h0c-.62.1-1.24.19-1.86.24-1.18.11-2.36.06-3.54.07H33.81c-.66,0-1.33,0-2-.08a11.35,11.35,0,0,1-2.17-.31c-.34-.11-.41-.21-.32-.55a4,4,0,0,0,.16-1.13.9.9,0,0,0-.8-.9,3.76,3.76,0,0,0-1.63.19,32.64,32.64,0,0,0-3.19,1.13Z" style="fill:#f7941e;fill-rule:evenodd"/><path d="M21.37,34.34l-2.75,1.44c-3.09,1.13-3.23,1.56-3.23.34l.07-2.6c0-.07.11-1.52.12-1.58.06-.6.39-2.85.39-2.91.29-1.81.42-2.83.5-3.31l2.15-.63c.93,0,2-1.14,2-.2l.61,4.57C21.33,30.47,22,34.14,21.37,34.34Z" style="fill:#c67b2f;fill-rule:evenodd"/><path d="M19.9,12.14l-.24.16a.56.56,0,0,1-.47,0,3.33,3.33,0,0,0-.63,0c-.47,0-.94-.08-1.42-.1s-1.22-.11-1.83-.14c-.22,0-.45,0-.67-.05-.68,0-1.36-.08-2-.16a4.22,4.22,0,0,1-.61,0c-.47-.05-1-.05-1.42-.1s-1.08-.1-1.67-.11c-.07,0-.14-.06-.26,0,.49-.33.95-.6,1.42-.87a12.83,12.83,0,0,1,2.07-.93c.2-.08.15-.23.12-.35a1.43,1.43,0,0,1,0-.29V7.52c0-.55,0-1.15.08-1.72a18.61,18.61,0,0,1,.64-3.7,6.3,6.3,0,0,1,.39-1,2.8,2.8,0,0,1,.17.63c.09.55.16,1.06.2,1.59s.1,1,.12,1.49,0,1.09.09,1.63c0,.35,0,.7,0,1C14,8,14,8.56,14,9.11c0,.09,0,.12.12.12h.82A8.06,8.06,0,0,1,17,9.56a8.57,8.57,0,0,1,1.77.73l.12.05c.07-.55,0-1.06.06-1.58l.11-1.88c0-.43,0-.85.07-1.28.06-.66.12-1.32.19-2a19.81,19.81,0,0,1,.28-2c.05-.21.13-.42.21-.66a9,9,0,0,1,.83,2.18,1.61,1.61,0,0,1,.08.38,4.9,4.9,0,0,1,.06.77V6.76a.5.5,0,0,1-.11.39.31.31,0,0,0-.05.23v.7a.53.53,0,0,1-.11.44.33.33,0,0,0,0,.22v.54a.54.54,0,0,1-.11.37.3.3,0,0,0-.05.21v.45c0,.16,0,.17,0,.22a.82.82,0,0,0-.12.61.37.37,0,0,1-.14.35c-.08,0-.06.15-.06.22A.89.89,0,0,1,19.9,12.14Z" style="fill:#fff;fill-rule:evenodd"/><path d="M19.73,12.51l1.49-.44c.09,0,.12,0,.12.09a8.74,8.74,0,0,1-.08,1.14,4,4,0,0,1,0,.59c0,.42-.08.83-.1,1.26s-.13,1.08-.19,1.67c0,.33-.05.68-.08,1-.05.59-.11,1.16-.16,1.75a5.08,5.08,0,0,1,0,.67c0,.38,0,.76-.06,1.14,0,.66-.08,1.32-.07,2a.15.15,0,0,1-.12.17,20.92,20.92,0,0,1-3.37,1.06l-.23,0" style="fill:#c2c1c1;fill-rule:evenodd"/><path d="M20.73,3.51A8,8,0,0,1,21,4.59c.07.42.14.83.19,1.25s.06.54.09.86c.08,1,.12,2,.13,3,0,.54,0,1,0,1.56,0,.08-.05.1-.1.13-.47.22-.92.51-1.38.77" style="fill:#c2c1c1;fill-rule:evenodd"/><path d="M38.75,50.87a10.87,10.87,0,0,0-2.29-6,4.47,4.47,0,0,1,2.38,5.85Z" style="fill:#fff;fill-rule:evenodd"/><g id="Camada_2-2-2" data-name="Camada 2-2"><g id="Layer_1-2" data-name="Layer 1-2"><g style="opacity:0.9700000286102295"><path d="M81.59,67.84,71,67.78,69.32,55.66,56.48,55.6,54.62,67.67H45L56,1.14l15.28.07ZM57.81,46.57H67.9L63.11,12.92H63Z" style="fill:#231f20"/><path d="M86.75,1.24H97.22L97,58.36l17.22.08V68l-27.68-.11Z" style="fill:#231f20"/><path d="M150,18v8.65C149.84,37.3,144.68,43,134.21,43h-4.89l-.12,25H118.69L119,1.39l15.44.07C144.87,1.51,150,7.34,150,18Zm-20.51-7-.14,22.54h5c3.33,0,5.14-1.5,5.16-6.26v-10c0-4.75-1.78-6.28-5.11-6.3Z" style="fill:#231f20"/><path d="M187.17,68.29H176.61l-1.74-12.14L162,56.09l-1.86,12.07h-9.61l11-66.53,15.31.07ZM163.4,47h10.08l-4.79-33.69h-.19Z" style="fill:#231f20"/><path d="M222.39,43.63v8.85c0,10.65-5.41,16.71-15.68,16.66S191.14,63,191.19,52.33l.13-34.62C191.32,7,196.69,1,206.94,1s15.6,6.16,15.55,16.8v6.47H212.6V17.14c0-4.75-2.06-6.57-5.39-6.59s-5.43,1.79-5.45,6.54l-.17,36c0,4.76,2.06,6.48,5.39,6.5s5.43-1.69,5.45-6.45V43.63Z" style="fill:#231f20"/><path d="M262.51,68.64H252L250.2,56.56l-12.88-.06-1.87,12.07h-9.6l11-66.63,15.32.1ZM238.73,47.42h10.08L244,13.72h-.18Z" style="fill:#231f20"/></g><path d="M310.9,32.16h-.18L306.9,67H292.75l-7-65.61h10L301,53.19h.19l5.16-51.68h9.93L321,53.66h.19L326.74,1.6h9l-7.62,65.58-13.68-.06Z" style="fill:#231f20"/><path d="M351,29.35l14.15.07-.05,9.36L351,38.72l-.09,19.2,17.8.09v9.36l-28.1-.13.26-65.57L369,1.8v9.37L351.1,11Z" style="fill:#231f20"/><path d="M406.06,17v2.35c0,6.74-2.11,11-6.71,13.08v.19c5.51,2.18,7.64,7.06,7.61,14V52c0,10.12-5.42,15.53-15.72,15.48L375,67.4l.36-65.56,15.55.07C401.54,2,406.11,6.94,406.06,17Zm-20.49-5.8-.08,17.33h4c3.84,0,6.19-1.65,6.21-6.9V18c0-4.69-1.56-6.75-5.21-6.77Zm-.12,26.69L385.32,58h5.91c3.46,0,5.34-1.57,5.36-6.44V45.89c0-6.09-1.93-8-6.61-8Z" style="fill:#231f20"/></g></g></g></g></g></g></svg>